<mxfile host="Electron" modified="2024-08-19T22:44:53.380Z" agent="Mozilla/5.0 (Windows NT 10.0; Win64; x64) AppleWebKit/537.36 (KHTML, like Gecko) draw.io/21.7.5 Chrome/114.0.5735.289 Electron/25.8.1 Safari/537.36" etag="Dmn1wOODWQKMTjLCqGDN" version="21.7.5" type="device">
  <diagram id="2f404044-711c-603c-8f00-f6bb4c023d3c" name="Page-1">
    <mxGraphModel dx="2200" dy="1310" grid="1" gridSize="10" guides="1" tooltips="1" connect="1" arrows="1" fold="1" page="1" pageScale="1" pageWidth="1169" pageHeight="827" background="none" math="0" shadow="0">
      <root>
        <mxCell id="0" />
        <mxCell id="1" parent="0" />
        <mxCell id="g-7FKzvRzgdEEjlhN3GR-266" style="edgeStyle=orthogonalEdgeStyle;rounded=0;orthogonalLoop=1;jettySize=auto;html=1;exitX=1;exitY=0.5;exitDx=0;exitDy=0;entryX=0;entryY=0.5;entryDx=0;entryDy=0;fillColor=#b1ddf0;strokeColor=#10739e;" edge="1" parent="1" source="g-7FKzvRzgdEEjlhN3GR-241" target="g-7FKzvRzgdEEjlhN3GR-257">
          <mxGeometry relative="1" as="geometry" />
        </mxCell>
        <mxCell id="g-7FKzvRzgdEEjlhN3GR-291" style="edgeStyle=orthogonalEdgeStyle;rounded=0;orthogonalLoop=1;jettySize=auto;html=1;entryX=0.5;entryY=1;entryDx=0;entryDy=0;fillColor=#b1ddf0;strokeColor=#10739e;" edge="1" parent="1" source="g-7FKzvRzgdEEjlhN3GR-241" target="g-7FKzvRzgdEEjlhN3GR-281">
          <mxGeometry relative="1" as="geometry">
            <Array as="points">
              <mxPoint x="244" y="600" />
              <mxPoint x="1014" y="600" />
            </Array>
          </mxGeometry>
        </mxCell>
        <mxCell id="g-7FKzvRzgdEEjlhN3GR-241" value="PREPROCESSING" style="swimlane;startSize=20;horizontal=1;containerType=tree;fillColor=#b1ddf0;strokeColor=#10739e;" vertex="1" parent="1">
          <mxGeometry x="114" y="160" width="260" height="400" as="geometry" />
        </mxCell>
        <mxCell id="g-7FKzvRzgdEEjlhN3GR-253" style="edgeStyle=orthogonalEdgeStyle;rounded=0;orthogonalLoop=1;jettySize=auto;html=1;exitX=0;exitY=0.5;exitDx=0;exitDy=0;endArrow=none;endFill=0;startArrow=classic;startFill=1;fillColor=#b1ddf0;strokeColor=#10739e;" edge="1" parent="g-7FKzvRzgdEEjlhN3GR-241" source="g-7FKzvRzgdEEjlhN3GR-246">
          <mxGeometry relative="1" as="geometry">
            <mxPoint y="110" as="targetPoint" />
            <Array as="points">
              <mxPoint y="110" />
            </Array>
          </mxGeometry>
        </mxCell>
        <mxCell id="g-7FKzvRzgdEEjlhN3GR-255" style="edgeStyle=orthogonalEdgeStyle;rounded=0;orthogonalLoop=1;jettySize=auto;html=1;exitX=0.5;exitY=1;exitDx=0;exitDy=0;entryX=0.5;entryY=0;entryDx=0;entryDy=0;fillColor=#b1ddf0;strokeColor=#10739e;" edge="1" parent="g-7FKzvRzgdEEjlhN3GR-241" source="g-7FKzvRzgdEEjlhN3GR-246" target="g-7FKzvRzgdEEjlhN3GR-247">
          <mxGeometry relative="1" as="geometry" />
        </mxCell>
        <mxCell id="g-7FKzvRzgdEEjlhN3GR-246" value="Transformação" style="swimlane;fillColor=#b1ddf0;strokeColor=#10739e;" vertex="1" parent="g-7FKzvRzgdEEjlhN3GR-241">
          <mxGeometry x="70" y="60" width="120" height="100" as="geometry" />
        </mxCell>
        <mxCell id="g-7FKzvRzgdEEjlhN3GR-249" value="Alteração da&amp;nbsp;&lt;br&gt;tipagem e datas" style="text;html=1;align=center;verticalAlign=middle;resizable=0;points=[];autosize=1;strokeColor=#10739e;fillColor=#b1ddf0;" vertex="1" parent="g-7FKzvRzgdEEjlhN3GR-246">
          <mxGeometry x="5" y="35" width="110" height="40" as="geometry" />
        </mxCell>
        <mxCell id="g-7FKzvRzgdEEjlhN3GR-247" value="Criação de Colunas" style="swimlane;fillColor=#b1ddf0;strokeColor=#10739e;" vertex="1" parent="g-7FKzvRzgdEEjlhN3GR-241">
          <mxGeometry x="60" y="210" width="140" height="100" as="geometry" />
        </mxCell>
        <mxCell id="g-7FKzvRzgdEEjlhN3GR-256" style="edgeStyle=orthogonalEdgeStyle;rounded=0;orthogonalLoop=1;jettySize=auto;html=1;fillColor=#b1ddf0;strokeColor=#10739e;" edge="1" parent="g-7FKzvRzgdEEjlhN3GR-247" source="g-7FKzvRzgdEEjlhN3GR-250">
          <mxGeometry relative="1" as="geometry">
            <mxPoint x="200" y="53" as="targetPoint" />
          </mxGeometry>
        </mxCell>
        <mxCell id="g-7FKzvRzgdEEjlhN3GR-250" value="Criando colunas&lt;br&gt;importantes para&lt;br&gt;A analise" style="text;html=1;align=center;verticalAlign=middle;resizable=0;points=[];autosize=1;strokeColor=#10739e;fillColor=#b1ddf0;" vertex="1" parent="g-7FKzvRzgdEEjlhN3GR-247">
          <mxGeometry x="10" y="27" width="120" height="60" as="geometry" />
        </mxCell>
        <mxCell id="g-7FKzvRzgdEEjlhN3GR-254" style="edgeStyle=orthogonalEdgeStyle;rounded=0;orthogonalLoop=1;jettySize=auto;html=1;entryX=0;entryY=0.5;entryDx=0;entryDy=0;" edge="1" parent="1" source="g-7FKzvRzgdEEjlhN3GR-245" target="g-7FKzvRzgdEEjlhN3GR-241">
          <mxGeometry relative="1" as="geometry" />
        </mxCell>
        <mxCell id="g-7FKzvRzgdEEjlhN3GR-245" value="DATA" style="shape=datastore;whiteSpace=wrap;html=1;fillColor=#bac8d3;strokeColor=#23445d;" vertex="1" parent="1">
          <mxGeometry x="24" y="330" width="60" height="60" as="geometry" />
        </mxCell>
        <mxCell id="g-7FKzvRzgdEEjlhN3GR-280" style="edgeStyle=orthogonalEdgeStyle;rounded=0;orthogonalLoop=1;jettySize=auto;html=1;exitX=1;exitY=0.5;exitDx=0;exitDy=0;entryX=0;entryY=0.5;entryDx=0;entryDy=0;fillColor=#b1ddf0;strokeColor=#10739e;" edge="1" parent="1" source="g-7FKzvRzgdEEjlhN3GR-257" target="g-7FKzvRzgdEEjlhN3GR-279">
          <mxGeometry relative="1" as="geometry" />
        </mxCell>
        <mxCell id="g-7FKzvRzgdEEjlhN3GR-257" value="Criação de metricas" style="swimlane;startSize=20;horizontal=1;containerType=tree;fillColor=#b1ddf0;strokeColor=#10739e;" vertex="1" parent="1">
          <mxGeometry x="424" y="160" width="310" height="400" as="geometry" />
        </mxCell>
        <mxCell id="g-7FKzvRzgdEEjlhN3GR-273" style="edgeStyle=entityRelationEdgeStyle;rounded=0;orthogonalLoop=1;jettySize=auto;html=1;fillColor=#b1ddf0;strokeColor=#10739e;" edge="1" parent="g-7FKzvRzgdEEjlhN3GR-257" source="g-7FKzvRzgdEEjlhN3GR-267">
          <mxGeometry relative="1" as="geometry">
            <mxPoint x="310" y="230.0000000000001" as="targetPoint" />
          </mxGeometry>
        </mxCell>
        <mxCell id="g-7FKzvRzgdEEjlhN3GR-267" value="DCiE (Data Center Infrastructure Efficiency)" style="label;whiteSpace=wrap;html=1;image=img/clipart/Gear_128x128.png;fillColor=#b1ddf0;strokeColor=#10739e;" vertex="1" parent="g-7FKzvRzgdEEjlhN3GR-257">
          <mxGeometry x="20" y="30" width="220" height="50" as="geometry" />
        </mxCell>
        <mxCell id="g-7FKzvRzgdEEjlhN3GR-274" style="edgeStyle=entityRelationEdgeStyle;rounded=0;orthogonalLoop=1;jettySize=auto;html=1;fillColor=#b1ddf0;strokeColor=#10739e;" edge="1" parent="g-7FKzvRzgdEEjlhN3GR-257" source="g-7FKzvRzgdEEjlhN3GR-268">
          <mxGeometry relative="1" as="geometry">
            <mxPoint x="310" y="230.0000000000001" as="targetPoint" />
          </mxGeometry>
        </mxCell>
        <mxCell id="g-7FKzvRzgdEEjlhN3GR-268" value="CUE (Carbon Usage Effectiveness)" style="label;whiteSpace=wrap;html=1;image=img/clipart/Gear_128x128.png;fillColor=#b1ddf0;strokeColor=#10739e;" vertex="1" parent="g-7FKzvRzgdEEjlhN3GR-257">
          <mxGeometry x="20" y="90" width="220" height="50" as="geometry" />
        </mxCell>
        <mxCell id="g-7FKzvRzgdEEjlhN3GR-275" style="edgeStyle=entityRelationEdgeStyle;rounded=0;orthogonalLoop=1;jettySize=auto;html=1;fillColor=#b1ddf0;strokeColor=#10739e;" edge="1" parent="g-7FKzvRzgdEEjlhN3GR-257" source="g-7FKzvRzgdEEjlhN3GR-269">
          <mxGeometry relative="1" as="geometry">
            <mxPoint x="310" y="230.0000000000001" as="targetPoint" />
          </mxGeometry>
        </mxCell>
        <mxCell id="g-7FKzvRzgdEEjlhN3GR-269" value="WUE (Water Usage Effectiveness)" style="label;whiteSpace=wrap;html=1;image=img/clipart/Gear_128x128.png;fillColor=#b1ddf0;strokeColor=#10739e;" vertex="1" parent="g-7FKzvRzgdEEjlhN3GR-257">
          <mxGeometry x="20" y="150" width="220" height="50" as="geometry" />
        </mxCell>
        <mxCell id="g-7FKzvRzgdEEjlhN3GR-276" style="edgeStyle=entityRelationEdgeStyle;rounded=0;orthogonalLoop=1;jettySize=auto;html=1;fillColor=#b1ddf0;strokeColor=#10739e;" edge="1" parent="g-7FKzvRzgdEEjlhN3GR-257" source="g-7FKzvRzgdEEjlhN3GR-270">
          <mxGeometry relative="1" as="geometry">
            <mxPoint x="310" y="230.0000000000001" as="targetPoint" />
          </mxGeometry>
        </mxCell>
        <mxCell id="g-7FKzvRzgdEEjlhN3GR-270" value="&lt;div&gt;Eficiência da Velocidade dos Ventiladores (Fan Efficiency)&lt;/div&gt;" style="label;whiteSpace=wrap;html=1;image=img/clipart/Gear_128x128.png;fillColor=#b1ddf0;strokeColor=#10739e;" vertex="1" parent="g-7FKzvRzgdEEjlhN3GR-257">
          <mxGeometry x="20" y="210" width="220" height="50" as="geometry" />
        </mxCell>
        <mxCell id="g-7FKzvRzgdEEjlhN3GR-277" style="edgeStyle=entityRelationEdgeStyle;rounded=0;orthogonalLoop=1;jettySize=auto;html=1;fillColor=#b1ddf0;strokeColor=#10739e;" edge="1" parent="g-7FKzvRzgdEEjlhN3GR-257" source="g-7FKzvRzgdEEjlhN3GR-271">
          <mxGeometry relative="1" as="geometry">
            <mxPoint x="310" y="230.0000000000001" as="targetPoint" />
          </mxGeometry>
        </mxCell>
        <mxCell id="g-7FKzvRzgdEEjlhN3GR-271" value="&lt;div&gt;MTBF (Mean Time Between Failures)&lt;/div&gt;" style="label;whiteSpace=wrap;html=1;image=img/clipart/Gear_128x128.png;fillColor=#b1ddf0;strokeColor=#10739e;" vertex="1" parent="g-7FKzvRzgdEEjlhN3GR-257">
          <mxGeometry x="20" y="270" width="220" height="50" as="geometry" />
        </mxCell>
        <mxCell id="g-7FKzvRzgdEEjlhN3GR-278" style="edgeStyle=entityRelationEdgeStyle;rounded=0;orthogonalLoop=1;jettySize=auto;html=1;fillColor=#b1ddf0;strokeColor=#10739e;" edge="1" parent="g-7FKzvRzgdEEjlhN3GR-257" source="g-7FKzvRzgdEEjlhN3GR-272">
          <mxGeometry relative="1" as="geometry">
            <mxPoint x="310" y="230.0000000000001" as="targetPoint" />
          </mxGeometry>
        </mxCell>
        <mxCell id="g-7FKzvRzgdEEjlhN3GR-272" value="PUE&amp;nbsp;&lt;span style=&quot;background-color: initial;&quot;&gt;(Power Usage Effectiveness)&lt;/span&gt;" style="label;whiteSpace=wrap;html=1;image=img/clipart/Gear_128x128.png;fillColor=#b1ddf0;strokeColor=#10739e;" vertex="1" parent="g-7FKzvRzgdEEjlhN3GR-257">
          <mxGeometry x="20" y="330" width="220" height="50" as="geometry" />
        </mxCell>
        <mxCell id="g-7FKzvRzgdEEjlhN3GR-290" style="edgeStyle=orthogonalEdgeStyle;rounded=0;orthogonalLoop=1;jettySize=auto;html=1;entryX=0;entryY=0.5;entryDx=0;entryDy=0;fillColor=#d5e8d4;strokeColor=#82b366;" edge="1" parent="1" source="g-7FKzvRzgdEEjlhN3GR-279" target="g-7FKzvRzgdEEjlhN3GR-281">
          <mxGeometry relative="1" as="geometry" />
        </mxCell>
        <mxCell id="g-7FKzvRzgdEEjlhN3GR-279" value="Aplicando metricas" style="icon;html=1;image=img/clipart/Gear_128x128.png;fillColor=#b0e3e6;strokeColor=#0e8088;" vertex="1" parent="1">
          <mxGeometry x="784" y="330" width="60" height="60" as="geometry" />
        </mxCell>
        <mxCell id="g-7FKzvRzgdEEjlhN3GR-281" value="Criação dos dashboards" style="swimlane;startSize=20;horizontal=1;containerType=tree;fillColor=#d5e8d4;strokeColor=#82b366;" vertex="1" parent="1">
          <mxGeometry x="884" y="160" width="260" height="400" as="geometry" />
        </mxCell>
        <mxCell id="g-7FKzvRzgdEEjlhN3GR-292" value="Dados brutos" style="swimlane;horizontal=0;whiteSpace=wrap;html=1;startSize=30;fillColor=#d5e8d4;strokeColor=#82b366;" vertex="1" parent="g-7FKzvRzgdEEjlhN3GR-281">
          <mxGeometry x="30" y="60" width="200" height="100" as="geometry" />
        </mxCell>
        <mxCell id="g-7FKzvRzgdEEjlhN3GR-294" value="Apresentação dos dados&lt;br&gt;de forma bruta e graficos&lt;br&gt;relacionados" style="text;html=1;align=center;verticalAlign=middle;resizable=0;points=[];autosize=1;strokeColor=#82b366;fillColor=#d5e8d4;" vertex="1" parent="g-7FKzvRzgdEEjlhN3GR-292">
          <mxGeometry x="30" y="21" width="160" height="60" as="geometry" />
        </mxCell>
        <mxCell id="g-7FKzvRzgdEEjlhN3GR-295" value="Dados das metricas" style="swimlane;horizontal=0;whiteSpace=wrap;html=1;startSize=30;fillColor=#d5e8d4;strokeColor=#82b366;" vertex="1" parent="g-7FKzvRzgdEEjlhN3GR-281">
          <mxGeometry x="30" y="170" width="200" height="100" as="geometry" />
        </mxCell>
        <mxCell id="g-7FKzvRzgdEEjlhN3GR-296" value="Apresentação dos dados,&amp;nbsp;&lt;br&gt;usando as metricas" style="text;html=1;align=center;verticalAlign=middle;resizable=0;points=[];autosize=1;strokeColor=#82b366;fillColor=#d5e8d4;" vertex="1" parent="g-7FKzvRzgdEEjlhN3GR-295">
          <mxGeometry x="25" y="31" width="170" height="40" as="geometry" />
        </mxCell>
        <mxCell id="g-7FKzvRzgdEEjlhN3GR-298" value="Analise temporal" style="swimlane;horizontal=0;whiteSpace=wrap;html=1;startSize=30;fillColor=#d5e8d4;strokeColor=#82b366;" vertex="1" parent="g-7FKzvRzgdEEjlhN3GR-281">
          <mxGeometry x="30" y="280" width="200" height="100" as="geometry" />
        </mxCell>
        <mxCell id="g-7FKzvRzgdEEjlhN3GR-299" value="Aplicar filtros para analise&lt;br&gt;temporal" style="text;html=1;align=center;verticalAlign=middle;resizable=0;points=[];autosize=1;strokeColor=#82b366;fillColor=#d5e8d4;" vertex="1" parent="g-7FKzvRzgdEEjlhN3GR-298">
          <mxGeometry x="25" y="31" width="170" height="40" as="geometry" />
        </mxCell>
        <mxCell id="g-7FKzvRzgdEEjlhN3GR-300" value="Projeto de sustentabilidade" style="text;html=1;strokeColor=none;fillColor=none;align=center;verticalAlign=middle;whiteSpace=wrap;rounded=0;fontSize=64;" vertex="1" parent="1">
          <mxGeometry x="130" y="30" width="910" height="90" as="geometry" />
        </mxCell>
      </root>
    </mxGraphModel>
  </diagram>
</mxfile>
